<svg xmlns="http://www.w3.org/2000/svg" viewBox="0 0 940 220" role="img" aria-labelledby="title desc">
  <title id="title">Geothority logo</title>
  <desc id="desc">GEOTHORITY wordmark with a dark blue map-pin G mark and green location accents.</desc>
  <defs>
    <style>
      .navy { fill: #12385f; }
      .green { fill: #56b848; }
      .word { fill: #12385f; font-family: Arial, Helvetica, sans-serif; font-size: 94px; font-weight: 900; letter-spacing: 4px; }
    </style>
  </defs>

  <g transform="translate(18 14)">
    <path class="navy" d="M96 4c51 0 92 40 92 90 0 69-92 170-92 170S4 163 4 94C4 44 45 4 96 4Z" transform="scale(.72)" />
    <circle cx="69" cy="67" r="34" fill="#fff" />
    <path class="navy" d="M70 29c25 0 43 16 49 36H91c-4-7-12-11-22-11-19 0-31 13-31 32s12 32 31 32c15 0 25-7 30-19H68V78h59c1 5 1 10 1 15 0 43-29 72-59 72-43 0-74-31-74-72s31-64 75-64Z" transform="translate(5 -10) scale(.78)" />
    <rect class="green" x="60" y="73" width="76" height="18" rx="9" />
  </g>

  <text class="word" x="170" y="143">GE</text>
  <g transform="translate(318 48)">
    <path class="green" d="M42 0c24 0 42 18 42 41 0 31-42 78-42 78S0 72 0 41C0 18 18 0 42 0Z" />
    <circle cx="42" cy="39" r="18" fill="#fff" />
  </g>
  <text class="word" x="410" y="143">THORITY</text>
</svg>
